<?xml version="1.0" encoding="UTF-8"?>
<svg width="1200" height="1400" xmlns="http://www.w3.org/2000/svg">
  <defs>
    <!-- Hand-drawn style filters -->
    <filter id="roughPaper" x="0%" y="0%" width="100%" height="100%">
      <feTurbulence baseFrequency="0.04" numOctaves="5" result="noise" seed="1"/>
      <feDisplacementMap in="SourceGraphic" in2="noise" scale="1"/>
    </filter>
    
    <!-- Gradient definitions for layers -->
    <linearGradient id="clientGradient" x1="0%" y1="0%" x2="0%" y2="100%">
      <stop offset="0%" style="stop-color:#E3F2FD;stop-opacity:0.8"/>
      <stop offset="100%" style="stop-color:#BBDEFB;stop-opacity:0.8"/>
    </linearGradient>
    
    <linearGradient id="brokerGradient" x1="0%" y1="0%" x2="0%" y2="100%">
      <stop offset="0%" style="stop-color:#E8F5E8;stop-opacity:0.8"/>
      <stop offset="100%" style="stop-color:#C8E6C9;stop-opacity:0.8"/>
    </linearGradient>
    
    <linearGradient id="storageGradient" x1="0%" y1="0%" x2="0%" y2="100%">
      <stop offset="0%" style="stop-color:#FFF3E0;stop-opacity:0.8"/>
      <stop offset="100%" style="stop-color:#FFE0B2;stop-opacity:0.8"/>
    </linearGradient>
    
    <linearGradient id="controllerGradient" x1="0%" y1="0%" x2="0%" y2="100%">
      <stop offset="0%" style="stop-color:#F3E5F5;stop-opacity:0.8"/>
      <stop offset="100%" style="stop-color:#E1BEE7;stop-opacity:0.8"/>
    </linearGradient>
    
    <linearGradient id="operationalGradient" x1="0%" y1="0%" x2="0%" y2="100%">
      <stop offset="0%" style="stop-color:#FFEBEE;stop-opacity:0.8"/>
      <stop offset="100%" style="stop-color:#FFCDD2;stop-opacity:0.8"/>
    </linearGradient>
    
    <linearGradient id="integrationGradient" x1="0%" y1="0%" x2="0%" y2="100%">
      <stop offset="0%" style="stop-color:#E0F2F1;stop-opacity:0.8"/>
      <stop offset="100%" style="stop-color:#B2DFDB;stop-opacity:0.8"/>
    </linearGradient>
  </defs>
  
  <!-- Background -->
  <rect width="1200" height="1400" fill="#FAFAFA" filter="url(#roughPaper)"/>
  
  <!-- Title -->
  <text x="600" y="40" text-anchor="middle" font-family="Comic Sans MS, cursive" font-size="28" font-weight="bold" fill="#2E3440">
    RustMQ Architecture - Storage-Compute Separation
  </text>
  
  <!-- CLIENT LAYER -->
  <g id="clientLayer">
    <!-- Hand-drawn rectangle -->
    <path d="M 50 70 Q 60 65 1150 70 Q 1155 75 1150 90 L 1148 140 Q 1150 145 1140 145 L 60 142 Q 55 140 50 135 Q 48 125 50 70 Z" 
          fill="url(#clientGradient)" stroke="#1976D2" stroke-width="3" filter="url(#roughPaper)"/>
    
    <text x="75" y="90" font-family="Comic Sans MS, cursive" font-size="16" font-weight="bold" fill="#1976D2">CLIENT LAYER</text>
    
    <!-- Client SDKs -->
    <rect x="100" y="100" width="120" height="40" rx="8" fill="#42A5F5" stroke="#1976D2" stroke-width="2" filter="url(#roughPaper)"/>
    <text x="160" y="115" text-anchor="middle" font-family="Comic Sans MS, cursive" font-size="11" fill="white">Rust SDK</text>
    <text x="160" y="128" text-anchor="middle" font-family="Comic Sans MS, cursive" font-size="9" fill="white">Producer/Consumer</text>
    
    <rect x="250" y="100" width="120" height="40" rx="8" fill="#42A5F5" stroke="#1976D2" stroke-width="2" filter="url(#roughPaper)"/>
    <text x="310" y="115" text-anchor="middle" font-family="Comic Sans MS, cursive" font-size="11" fill="white">Go SDK</text>
    <text x="310" y="128" text-anchor="middle" font-family="Comic Sans MS, cursive" font-size="9" fill="white">Producer/Consumer</text>
    
    <rect x="400" y="100" width="120" height="40" rx="8" fill="#90CAF9" stroke="#1976D2" stroke-width="2" filter="url(#roughPaper)"/>
    <text x="460" y="115" text-anchor="middle" font-family="Comic Sans MS, cursive" font-size="11" fill="#1976D2">JavaScript SDK</text>
    <text x="460" y="128" text-anchor="middle" font-family="Comic Sans MS, cursive" font-size="9" fill="#1976D2">(Future)</text>
    
    <rect x="550" y="100" width="120" height="40" rx="8" fill="#1E88E5" stroke="#1976D2" stroke-width="2" filter="url(#roughPaper)"/>
    <text x="610" y="115" text-anchor="middle" font-family="Comic Sans MS, cursive" font-size="11" fill="white">Admin CLI</text>
    <text x="610" y="128" text-anchor="middle" font-family="Comic Sans MS, cursive" font-size="9" fill="white">Management</text>
  </g>
  
  <!-- Protocol connectors -->
  <g id="protocols">
    <!-- QUIC/HTTP3 -->
    <path d="M 300 150 Q 305 155 295 170 Q 290 175 300 180" stroke="#FF6B35" stroke-width="3" fill="none" filter="url(#roughPaper)"/>
    <rect x="250" y="185" width="100" height="25" rx="5" fill="#FF6B35" stroke="#E65100" stroke-width="2"/>
    <text x="300" y="200" text-anchor="middle" font-family="Comic Sans MS, cursive" font-size="10" fill="white">QUIC/HTTP3</text>
    <text x="300" y="212" text-anchor="middle" font-family="Comic Sans MS, cursive" font-size="8" fill="white">Port 9092</text>
    
    <!-- HTTP/REST -->
    <path d="M 610 150 Q 615 155 605 170 Q 600 175 610 180" stroke="#FF6B35" stroke-width="3" fill="none" filter="url(#roughPaper)"/>
    <rect x="560" y="185" width="100" height="25" rx="5" fill="#FF8A65" stroke="#E65100" stroke-width="2"/>
    <text x="610" y="200" text-anchor="middle" font-family="Comic Sans MS, cursive" font-size="10" fill="white">HTTP/REST</text>
    <text x="610" y="212" text-anchor="middle" font-family="Comic Sans MS, cursive" font-size="8" fill="white">Port 8080</text>
  </g>
  
  <!-- BROKER CLUSTER -->
  <g id="brokerLayer">
    <path d="M 50 230 Q 60 225 1150 230 Q 1155 235 1150 250 L 1148 350 Q 1150 355 1140 355 L 60 352 Q 55 350 50 345 Q 48 335 50 230 Z" 
          fill="url(#brokerGradient)" stroke="#388E3C" stroke-width="3" filter="url(#roughPaper)"/>
    
    <text x="75" y="250" font-family="Comic Sans MS, cursive" font-size="16" font-weight="bold" fill="#2E7D32">BROKER CLUSTER</text>
    <text x="75" y="265" font-family="Comic Sans MS, cursive" font-size="12" fill="#2E7D32">(Stateless Compute)</text>
    
    <!-- Broker instances -->
    <g id="broker1">
      <rect x="100" y="280" width="150" height="60" rx="10" fill="#66BB6A" stroke="#388E3C" stroke-width="2" filter="url(#roughPaper)"/>
      <text x="175" y="295" text-anchor="middle" font-family="Comic Sans MS, cursive" font-size="12" font-weight="bold" fill="white">Broker-1</text>
      <rect x="110" y="300" width="130" height="15" rx="3" fill="#4CAF50" stroke="#2E7D32" stroke-width="1"/>
      <text x="175" y="310" text-anchor="middle" font-family="Comic Sans MS, cursive" font-size="8" fill="white">MessageBrokerCore</text>
      <rect x="110" y="318" width="60" height="15" rx="3" fill="#81C784" stroke="#2E7D32" stroke-width="1"/>
      <text x="140" y="328" text-anchor="middle" font-family="Comic Sans MS, cursive" font-size="7" fill="white">QUIC</text>
      <rect x="180" y="318" width="60" height="15" rx="3" fill="#81C784" stroke="#2E7D32" stroke-width="1"/>
      <text x="210" y="328" text-anchor="middle" font-family="Comic Sans MS, cursive" font-size="7" fill="white">gRPC</text>
    </g>
    
    <g id="broker2">
      <rect x="300" y="280" width="150" height="60" rx="10" fill="#66BB6A" stroke="#388E3C" stroke-width="2" filter="url(#roughPaper)"/>
      <text x="375" y="295" text-anchor="middle" font-family="Comic Sans MS, cursive" font-size="12" font-weight="bold" fill="white">Broker-2</text>
      <rect x="310" y="300" width="130" height="15" rx="3" fill="#4CAF50" stroke="#2E7D32" stroke-width="1"/>
      <text x="375" y="310" text-anchor="middle" font-family="Comic Sans MS, cursive" font-size="8" fill="white">MessageBrokerCore</text>
      <rect x="310" y="318" width="60" height="15" rx="3" fill="#81C784" stroke="#2E7D32" stroke-width="1"/>
      <text x="340" y="328" text-anchor="middle" font-family="Comic Sans MS, cursive" font-size="7" fill="white">QUIC</text>
      <rect x="380" y="318" width="60" height="15" rx="3" fill="#81C784" stroke="#2E7D32" stroke-width="1"/>
      <text x="410" y="328" text-anchor="middle" font-family="Comic Sans MS, cursive" font-size="7" fill="white">gRPC</text>
    </g>
    
    <g id="broker3">
      <rect x="500" y="280" width="150" height="60" rx="10" fill="#66BB6A" stroke="#388E3C" stroke-width="2" filter="url(#roughPaper)"/>
      <text x="575" y="295" text-anchor="middle" font-family="Comic Sans MS, cursive" font-size="12" font-weight="bold" fill="white">Broker-3</text>
      <rect x="510" y="300" width="130" height="15" rx="3" fill="#4CAF50" stroke="#2E7D32" stroke-width="1"/>
      <text x="575" y="310" text-anchor="middle" font-family="Comic Sans MS, cursive" font-size="8" fill="white">MessageBrokerCore</text>
      <rect x="510" y="318" width="60" height="15" rx="3" fill="#81C784" stroke="#2E7D32" stroke-width="1"/>
      <text x="540" y="328" text-anchor="middle" font-family="Comic Sans MS, cursive" font-size="7" fill="white">QUIC</text>
      <rect x="580" y="318" width="60" height="15" rx="3" fill="#81C784" stroke="#2E7D32" stroke-width="1"/>
      <text x="610" y="328" text-anchor="middle" font-family="Comic Sans MS, cursive" font-size="7" fill="white">gRPC</text>
    </g>
    
    <!-- gRPC connections between brokers -->
    <path d="M 250 310 Q 275 305 300 310" stroke="#4CAF50" stroke-width="2" fill="none" marker-end="url(#arrowgreen)"/>
    <path d="M 450 310 Q 475 305 500 310" stroke="#4CAF50" stroke-width="2" fill="none" marker-end="url(#arrowgreen)"/>
    <text x="600" y="375" font-family="Comic Sans MS, cursive" font-size="10" fill="#2E7D32">gRPC Inter-Broker Communication</text>
  </g>
  
  <!-- Replication layer -->
  <rect x="450" y="380" width="200" height="30" rx="8" fill="#8BC34A" stroke="#689F38" stroke-width="2" filter="url(#roughPaper)"/>
  <text x="550" y="398" text-anchor="middle" font-family="Comic Sans MS, cursive" font-size="11" fill="white">REPLICATION</text>
  <text x="550" y="410" text-anchor="middle" font-family="Comic Sans MS, cursive" font-size="9" fill="white">Leader-Follower (Shared Storage)</text>
  
  <!-- TIERED STORAGE LAYER -->
  <g id="storageLayer">
    <path d="M 50 430 Q 60 425 1150 430 Q 1155 435 1150 450 L 1148 580 Q 1150 585 1140 585 L 60 582 Q 55 580 50 575 Q 48 565 50 430 Z" 
          fill="url(#storageGradient)" stroke="#F57C00" stroke-width="3" filter="url(#roughPaper)"/>
    
    <text x="75" y="450" font-family="Comic Sans MS, cursive" font-size="16" font-weight="bold" fill="#E65100">TIERED STORAGE LAYER</text>
    <text x="75" y="465" font-family="Comic Sans MS, cursive" font-size="12" fill="#E65100">(Persistent &amp; Cached)</text>
    
    <!-- Local WAL -->
    <rect x="100" y="480" width="150" height="80" rx="10" fill="#FFB74D" stroke="#F57C00" stroke-width="2" filter="url(#roughPaper)"/>
    <text x="175" y="500" text-anchor="middle" font-family="Comic Sans MS, cursive" font-size="12" font-weight="bold" fill="white">Local WAL</text>
    <text x="175" y="515" text-anchor="middle" font-family="Comic Sans MS, cursive" font-size="10" fill="white">(NVMe SSD)</text>
    <rect x="110" y="525" width="130" height="25" rx="5" fill="#FF9800" stroke="#E65100" stroke-width="1"/>
    <text x="175" y="535" text-anchor="middle" font-family="Comic Sans MS, cursive" font-size="9" fill="white">DirectIO</text>
    <text x="175" y="545" text-anchor="middle" font-family="Comic Sans MS, cursive" font-size="9" fill="white">Circular Buffer</text>
    
    <!-- Cache Layer -->
    <rect x="300" y="480" width="150" height="80" rx="10" fill="#FFB74D" stroke="#F57C00" stroke-width="2" filter="url(#roughPaper)"/>
    <text x="375" y="500" text-anchor="middle" font-family="Comic Sans MS, cursive" font-size="12" font-weight="bold" fill="white">Cache Layer</text>
    <rect x="310" y="510" width="130" height="18" rx="3" fill="#FFA726" stroke="#E65100" stroke-width="1"/>
    <text x="375" y="522" text-anchor="middle" font-family="Comic Sans MS, cursive" font-size="8" fill="white">Write Cache (Hot Data)</text>
    <rect x="310" y="535" width="130" height="18" rx="3" fill="#FFCC02" stroke="#E65100" stroke-width="1"/>
    <text x="375" y="547" text-anchor="middle" font-family="Comic Sans MS, cursive" font-size="8" fill="white">Read Cache (Historical)</text>
    
    <!-- Object Storage -->
    <rect x="500" y="480" width="150" height="80" rx="10" fill="#FFB74D" stroke="#F57C00" stroke-width="2" filter="url(#roughPaper)"/>
    <text x="575" y="500" text-anchor="middle" font-family="Comic Sans MS, cursive" font-size="12" font-weight="bold" fill="white">Object Storage</text>
    <text x="575" y="515" text-anchor="middle" font-family="Comic Sans MS, cursive" font-size="10" fill="white">(S3/GCS/Azure)</text>
    <rect x="510" y="525" width="130" height="25" rx="5" fill="#FF9800" stroke="#E65100" stroke-width="1"/>
    <text x="575" y="535" text-anchor="middle" font-family="Comic Sans MS, cursive" font-size="9" fill="white">Segments</text>
    <text x="575" y="545" text-anchor="middle" font-family="Comic Sans MS, cursive" font-size="9" fill="white">Compacted &amp; Compressed</text>
    
    <!-- Data flow arrows -->
    <path d="M 250 520 Q 270 515 300 520" stroke="#FF5722" stroke-width="3" fill="none" marker-end="url(#arroworange)"/>
    <text x="275" y="510" font-family="Comic Sans MS, cursive" font-size="8" fill="#E65100">Write Path</text>
    
    <path d="M 500 540 Q 480 535 450 540" stroke="#FF9800" stroke-width="3" fill="none" marker-end="url(#arroworange)"/>
    <text x="475" y="530" font-family="Comic Sans MS, cursive" font-size="8" fill="#E65100">Read Path</text>
    
    <path d="M 450 550 Q 470 555 500 550" stroke="#FF7043" stroke-width="3" fill="none" marker-end="url(#arroworange)"/>
    <text x="460" y="575" font-family="Comic Sans MS, cursive" font-size="8" fill="#E65100">Intelligent Upload</text>
  </g>
  
  <!-- Data Flow Summary -->
  <rect x="750" y="480" width="300" height="80" rx="8" fill="#FFF8E1" stroke="#F9A825" stroke-width="2" filter="url(#roughPaper)"/>
  <text x="900" y="500" text-anchor="middle" font-family="Comic Sans MS, cursive" font-size="12" font-weight="bold" fill="#F57C00">DATA FLOW</text>
  <text x="760" y="520" font-family="Comic Sans MS, cursive" font-size="9" fill="#E65100">Write: Client → QUIC → Broker → WAL → Cache → Object Storage</text>
  <text x="760" y="535" font-family="Comic Sans MS, cursive" font-size="9" fill="#E65100">Read: Client ← QUIC ← Broker ← Cache ← Object Storage (if miss)</text>
  <text x="760" y="550" font-family="Comic Sans MS, cursive" font-size="9" fill="#E65100">Replication: Leader → Followers (Metadata Only)</text>
  
  <!-- CONTROLLER CLUSTER -->
  <g id="controllerLayer">
    <path d="M 50 600 Q 60 595 1150 600 Q 1155 605 1150 620 L 1148 750 Q 1150 755 1140 755 L 60 752 Q 55 750 50 745 Q 48 735 50 600 Z" 
          fill="url(#controllerGradient)" stroke="#7B1FA2" stroke-width="3" filter="url(#roughPaper)"/>
    
    <text x="75" y="620" font-family="Comic Sans MS, cursive" font-size="16" font-weight="bold" fill="#6A1B9A">CONTROLLER CLUSTER</text>
    <text x="75" y="635" font-family="Comic Sans MS, cursive" font-size="12" fill="#6A1B9A">(Raft Consensus)</text>
    
    <!-- Controller instances -->
    <g id="controller1">
      <rect x="100" y="650" width="150" height="80" rx="10" fill="#AB47BC" stroke="#7B1FA2" stroke-width="2" filter="url(#roughPaper)"/>
      <text x="175" y="670" text-anchor="middle" font-family="Comic Sans MS, cursive" font-size="12" font-weight="bold" fill="white">Controller-1</text>
      <text x="175" y="685" text-anchor="middle" font-family="Comic Sans MS, cursive" font-size="10" fill="white">(Leader)</text>
      <rect x="110" y="695" width="130" height="12" rx="3" fill="#9C27B0" stroke="#6A1B9A" stroke-width="1"/>
      <text x="175" y="705" text-anchor="middle" font-family="Comic Sans MS, cursive" font-size="8" fill="white">Raft Node - Metadata Mgmt</text>
      <rect x="110" y="710" width="60" height="12" rx="3" fill="#BA68C8" stroke="#6A1B9A" stroke-width="1"/>
      <text x="140" y="719" text-anchor="middle" font-family="Comic Sans MS, cursive" font-size="7" fill="white">gRPC:9094</text>
      <rect x="180" y="710" width="60" height="12" rx="3" fill="#BA68C8" stroke="#6A1B9A" stroke-width="1"/>
      <text x="210" y="719" text-anchor="middle" font-family="Comic Sans MS, cursive" font-size="7" fill="white">HTTP:9642</text>
    </g>
    
    <g id="controller2">
      <rect x="300" y="650" width="150" height="80" rx="10" fill="#AB47BC" stroke="#7B1FA2" stroke-width="2" filter="url(#roughPaper)"/>
      <text x="375" y="670" text-anchor="middle" font-family="Comic Sans MS, cursive" font-size="12" font-weight="bold" fill="white">Controller-2</text>
      <text x="375" y="685" text-anchor="middle" font-family="Comic Sans MS, cursive" font-size="10" fill="white">(Follower)</text>
      <rect x="310" y="695" width="130" height="12" rx="3" fill="#9C27B0" stroke="#6A1B9A" stroke-width="1"/>
      <text x="375" y="705" text-anchor="middle" font-family="Comic Sans MS, cursive" font-size="8" fill="white">Raft Node - Term: Current</text>
      <rect x="310" y="710" width="60" height="12" rx="3" fill="#BA68C8" stroke="#6A1B9A" stroke-width="1"/>
      <text x="340" y="719" text-anchor="middle" font-family="Comic Sans MS, cursive" font-size="7" fill="white">gRPC:9094</text>
      <rect x="380" y="710" width="60" height="12" rx="3" fill="#BA68C8" stroke="#6A1B9A" stroke-width="1"/>
      <text x="410" y="719" text-anchor="middle" font-family="Comic Sans MS, cursive" font-size="7" fill="white">Raft:9095</text>
    </g>
    
    <g id="controller3">
      <rect x="500" y="650" width="150" height="80" rx="10" fill="#AB47BC" stroke="#7B1FA2" stroke-width="2" filter="url(#roughPaper)"/>
      <text x="575" y="670" text-anchor="middle" font-family="Comic Sans MS, cursive" font-size="12" font-weight="bold" fill="white">Controller-3</text>
      <text x="575" y="685" text-anchor="middle" font-family="Comic Sans MS, cursive" font-size="10" fill="white">(Follower)</text>
      <rect x="510" y="695" width="130" height="12" rx="3" fill="#9C27B0" stroke="#6A1B9A" stroke-width="1"/>
      <text x="575" y="705" text-anchor="middle" font-family="Comic Sans MS, cursive" font-size="8" fill="white">Raft Node - Log Replica</text>
      <rect x="510" y="710" width="60" height="12" rx="3" fill="#BA68C8" stroke="#6A1B9A" stroke-width="1"/>
      <text x="540" y="719" text-anchor="middle" font-family="Comic Sans MS, cursive" font-size="7" fill="white">gRPC:9094</text>
      <rect x="580" y="710" width="60" height="12" rx="3" fill="#BA68C8" stroke="#6A1B9A" stroke-width="1"/>
      <text x="610" y="719" text-anchor="middle" font-family="Comic Sans MS, cursive" font-size="7" fill="white">Health:9642</text>
    </g>
    
    <!-- Raft connections -->
    <path d="M 250 690 Q 275 685 300 690" stroke="#9C27B0" stroke-width="3" fill="none"/>
    <path d="M 450 690 Q 475 685 500 690" stroke="#9C27B0" stroke-width="3" fill="none"/>
    <text x="375" y="740" text-anchor="middle" font-family="Comic Sans MS, cursive" font-size="10" fill="#6A1B9A">Raft Consensus &amp; Replication</text>
  </g>
  
  <!-- OPERATIONAL LAYER -->
  <g id="operationalLayer">
    <path d="M 50 770 Q 60 765 1150 770 Q 1155 775 1150 790 L 1148 920 Q 1150 925 1140 925 L 60 922 Q 55 920 50 915 Q 48 905 50 770 Z" 
          fill="url(#operationalGradient)" stroke="#D32F2F" stroke-width="3" filter="url(#roughPaper)"/>
    
    <text x="75" y="790" font-family="Comic Sans MS, cursive" font-size="16" font-weight="bold" fill="#C62828">OPERATIONAL LAYER</text>
    
    <!-- Admin REST API -->
    <rect x="100" y="810" width="150" height="80" rx="10" fill="#EF5350" stroke="#D32F2F" stroke-width="2" filter="url(#roughPaper)"/>
    <text x="175" y="830" text-anchor="middle" font-family="Comic Sans MS, cursive" font-size="12" font-weight="bold" fill="white">Admin REST</text>
    <text x="175" y="845" text-anchor="middle" font-family="Comic Sans MS, cursive" font-size="12" font-weight="bold" fill="white">API</text>
    <rect x="110" y="855" width="130" height="12" rx="3" fill="#F44336" stroke="#C62828" stroke-width="1"/>
    <text x="175" y="865" text-anchor="middle" font-family="Comic Sans MS, cursive" font-size="8" fill="white">Topic Mgmt, Cluster Health</text>
    <rect x="110" y="870" width="130" height="12" rx="3" fill="#FFAB91" stroke="#C62828" stroke-width="1"/>
    <text x="175" y="880" text-anchor="middle" font-family="Comic Sans MS, cursive" font-size="8" fill="white">Health Tracking</text>
    
    <!-- Scaling Manager -->
    <rect x="300" y="810" width="150" height="80" rx="10" fill="#EF5350" stroke="#D32F2F" stroke-width="2" filter="url(#roughPaper)"/>
    <text x="375" y="830" text-anchor="middle" font-family="Comic Sans MS, cursive" font-size="12" font-weight="bold" fill="white">Scaling</text>
    <text x="375" y="845" text-anchor="middle" font-family="Comic Sans MS, cursive" font-size="12" font-weight="bold" fill="white">Manager</text>
    <rect x="310" y="855" width="130" height="12" rx="3" fill="#F44336" stroke="#C62828" stroke-width="1"/>
    <text x="375" y="865" text-anchor="middle" font-family="Comic Sans MS, cursive" font-size="8" fill="white">Partition Rebalancer</text>
    <rect x="310" y="870" width="130" height="12" rx="3" fill="#FFAB91" stroke="#C62828" stroke-width="1"/>
    <text x="375" y="880" text-anchor="middle" font-family="Comic Sans MS, cursive" font-size="8" fill="white">Auto-scaling Algorithms</text>
    
    <!-- Operations Management -->
    <rect x="500" y="810" width="150" height="80" rx="10" fill="#EF5350" stroke="#D32F2F" stroke-width="2" filter="url(#roughPaper)"/>
    <text x="575" y="830" text-anchor="middle" font-family="Comic Sans MS, cursive" font-size="12" font-weight="bold" fill="white">Operations</text>
    <text x="575" y="845" text-anchor="middle" font-family="Comic Sans MS, cursive" font-size="12" font-weight="bold" fill="white">Management</text>
    <rect x="510" y="855" width="130" height="12" rx="3" fill="#F44336" stroke="#C62828" stroke-width="1"/>
    <text x="575" y="865" text-anchor="middle" font-family="Comic Sans MS, cursive" font-size="8" fill="white">Rolling Upgrades</text>
    <rect x="510" y="870" width="130" height="12" rx="3" fill="#FFAB91" stroke="#C62828" stroke-width="1"/>
    <text x="575" y="880" text-anchor="middle" font-family="Comic Sans MS, cursive" font-size="8" fill="white">Kubernetes Integration</text>
  </g>
  
  <!-- INTEGRATION LAYER -->
  <g id="integrationLayer">
    <path d="M 50 940 Q 60 935 1150 940 Q 1155 945 1150 960 L 1148 1090 Q 1150 1095 1140 1095 L 60 1092 Q 55 1090 50 1085 Q 48 1075 50 940 Z" 
          fill="url(#integrationGradient)" stroke="#00796B" stroke-width="3" filter="url(#roughPaper)"/>
    
    <text x="75" y="960" font-family="Comic Sans MS, cursive" font-size="16" font-weight="bold" fill="#004D40">INTEGRATION LAYER</text>
    
    <!-- ETL Processing -->
    <rect x="100" y="980" width="150" height="80" rx="10" fill="#4DB6AC" stroke="#00796B" stroke-width="2" filter="url(#roughPaper)"/>
    <text x="175" y="1000" text-anchor="middle" font-family="Comic Sans MS, cursive" font-size="12" font-weight="bold" fill="white">ETL</text>
    <text x="175" y="1015" text-anchor="middle" font-family="Comic Sans MS, cursive" font-size="12" font-weight="bold" fill="white">Processing</text>
    <rect x="110" y="1025" width="130" height="12" rx="3" fill="#26A69A" stroke="#004D40" stroke-width="1"/>
    <text x="175" y="1035" text-anchor="middle" font-family="Comic Sans MS, cursive" font-size="8" fill="white">WebAssembly Modules</text>
    <rect x="110" y="1040" width="130" height="12" rx="3" fill="#80CBC4" stroke="#004D40" stroke-width="1"/>
    <text x="175" y="1050" text-anchor="middle" font-family="Comic Sans MS, cursive" font-size="8" fill="white">Sandboxed Execution</text>
    
    <!-- BigQuery Subscriber -->
    <rect x="300" y="980" width="150" height="80" rx="10" fill="#4DB6AC" stroke="#00796B" stroke-width="2" filter="url(#roughPaper)"/>
    <text x="375" y="1000" text-anchor="middle" font-family="Comic Sans MS, cursive" font-size="12" font-weight="bold" fill="white">BigQuery</text>
    <text x="375" y="1015" text-anchor="middle" font-family="Comic Sans MS, cursive" font-size="12" font-weight="bold" fill="white">Subscriber</text>
    <rect x="310" y="1025" width="130" height="12" rx="3" fill="#26A69A" stroke="#004D40" stroke-width="1"/>
    <text x="375" y="1035" text-anchor="middle" font-family="Comic Sans MS, cursive" font-size="8" fill="white">Streaming Inserts</text>
    <rect x="310" y="1040" width="130" height="12" rx="3" fill="#80CBC4" stroke="#004D40" stroke-width="1"/>
    <text x="375" y="1050" text-anchor="middle" font-family="Comic Sans MS, cursive" font-size="8" fill="white">Schema Mapping</text>
    
    <!-- Monitoring & Metrics -->
    <rect x="500" y="980" width="150" height="80" rx="10" fill="#B2DFDB" stroke="#00796B" stroke-width="2" filter="url(#roughPaper)"/>
    <text x="575" y="1000" text-anchor="middle" font-family="Comic Sans MS, cursive" font-size="12" font-weight="bold" fill="#004D40">Monitoring</text>
    <text x="575" y="1015" text-anchor="middle" font-family="Comic Sans MS, cursive" font-size="12" font-weight="bold" fill="#004D40">&amp; Metrics</text>
    <text x="575" y="1030" text-anchor="middle" font-family="Comic Sans MS, cursive" font-size="10" fill="#004D40">(Future)</text>
    <rect x="510" y="1040" width="130" height="12" rx="3" fill="#4DB6AC" stroke="#004D40" stroke-width="1"/>
    <text x="575" y="1050" text-anchor="middle" font-family="Comic Sans MS, cursive" font-size="8" fill="white">Prometheus, Grafana</text>
  </g>
  
  <!-- Key Architectural Principles -->
  <rect x="700" y="980" width="350" height="100" rx="10" fill="#F5F5F5" stroke="#424242" stroke-width="2" filter="url(#roughPaper)"/>
  <text x="875" y="1000" text-anchor="middle" font-family="Comic Sans MS, cursive" font-size="14" font-weight="bold" fill="#212121">Key Architectural Principles</text>
  <text x="710" y="1020" font-family="Comic Sans MS, cursive" font-size="10" fill="#424242">1. Storage-Compute Separation: Stateless brokers</text>
  <text x="710" y="1035" font-family="Comic Sans MS, cursive" font-size="10" fill="#424242">2. Intelligent Tiered Storage: Hot/cold optimization</text>
  <text x="710" y="1050" font-family="Comic Sans MS, cursive" font-size="10" fill="#424242">3. Replication Without Data Movement</text>
  <text x="710" y="1065" font-family="Comic Sans MS, cursive" font-size="10" fill="#424242">4. QUIC/HTTP3 Protocol &amp; Raft Consensus</text>
  
  <!-- Arrow markers -->
  <defs>
    <marker id="arrowgreen" markerWidth="10" markerHeight="10" refX="9" refY="3" orient="auto" markerUnits="strokeWidth">
      <path d="M0,0 L0,6 L9,3 z" fill="#4CAF50"/>
    </marker>
    <marker id="arroworange" markerWidth="10" markerHeight="10" refX="9" refY="3" orient="auto" markerUnits="strokeWidth">
      <path d="M0,0 L0,6 L9,3 z" fill="#FF5722"/>
    </marker>
  </defs>
  
  <!-- Main data flow arrows -->
  <g id="mainFlows">
    <!-- Client to Broker -->
    <path d="M 300 220 Q 310 240 300 260" stroke="#2196F3" stroke-width="4" fill="none" marker-end="url(#arrowgreen)" filter="url(#roughPaper)"/>
    <text x="320" y="240" font-family="Comic Sans MS, cursive" font-size="10" fill="#1976D2">Client Requests</text>
    
    <!-- Broker to Storage -->
    <path d="M 375 360 Q 385 400 375 420" stroke="#4CAF50" stroke-width="4" fill="none" marker-end="url(#arroworange)" filter="url(#roughPaper)"/>
    <text x="390" y="390" font-family="Comic Sans MS, cursive" font-size="10" fill="#2E7D32">Data Flow</text>
    
    <!-- Storage to Controller -->
    <path d="M 375 590 Q 385 595 375 610" stroke="#FF9800" stroke-width="4" fill="none" marker-end="url(#arrowgreen)" filter="url(#roughPaper)"/>
    <text x="390" y="600" font-family="Comic Sans MS, cursive" font-size="10" fill="#E65100">Metadata</text>
    
    <!-- Controller to Operations -->
    <path d="M 375 760 Q 385 765 375 780" stroke="#9C27B0" stroke-width="4" fill="none" marker-end="url(#arrowgreen)" filter="url(#roughPaper)"/>
    <text x="390" y="770" font-family="Comic Sans MS, cursive" font-size="10" fill="#6A1B9A">Management</text>
  </g>
  
  <!-- Footer -->
  <text x="600" y="1130" text-anchor="middle" font-family="Comic Sans MS, cursive" font-size="14" font-weight="bold" fill="#424242">
    RustMQ: Cloud-Native Message Queue with 10x Cost Reduction &amp; 100x Elasticity
  </text>
  <text x="600" y="1150" text-anchor="middle" font-family="Comic Sans MS, cursive" font-size="12" fill="#666666">
    Optimized for Google Cloud Platform
  </text>
  
</svg>